<svg width="36" height="36" viewBox="0 0 36 36" fill="none" xmlns="http://www.w3.org/2000/svg">
<g id="close" clip-path="url(#clip0_401_1597)">
<path id="Vector" d="M18 36C22.7739 36 27.3523 34.1036 30.7279 30.7279C34.1036 27.3523 36 22.7739 36 18C36 13.2261 34.1036 8.64773 30.7279 5.27208C27.3523 1.89642 22.7739 0 18 0C13.2261 0 8.64773 1.89642 5.27208 5.27208C1.89642 8.64773 0 13.2261 0 18C0 22.7739 1.89642 27.3523 5.27208 30.7279C8.64773 34.1036 13.2261 36 18 36ZM12.3047 12.3047C12.9656 11.6438 14.0344 11.6438 14.6883 12.3047L17.993 15.6094L21.2977 12.3047C21.9586 11.6438 23.0273 11.6438 23.6812 12.3047C24.3352 12.9656 24.3422 14.0344 23.6812 14.6883L20.3766 17.993L23.6812 21.2977C24.3422 21.9586 24.3422 23.0273 23.6812 23.6812C23.0203 24.3352 21.9516 24.3422 21.2977 23.6812L17.993 20.3766L14.6883 23.6812C14.0273 24.3422 12.9586 24.3422 12.3047 23.6812C11.6508 23.0203 11.6438 21.9516 12.3047 21.2977L15.6094 17.993L12.3047 14.6883C11.6438 14.0273 11.6438 12.9586 12.3047 12.3047Z" fill="#003A64"/>
</g>
<defs>
<clipPath id="clip0_401_1597">
<rect width="36" height="36" fill="white"/>
</clipPath>
</defs>
</svg>
