<svg width="210" height="379" viewBox="0 0 210 379" fill="none" xmlns="http://www.w3.org/2000/svg">
<rect x="25.6723" y="4.67233" width="175.271" height="369.655" rx="22.7203" fill="#003A64"/>
<rect x="25.6723" y="4.67233" width="175.271" height="369.655" rx="22.7203" stroke="white" stroke-width="8.65535"/>
<rect x="48.9617" y="48.5182" width="26.1775" height="26.1775" rx="6.25983" fill="#5C8FB4" stroke="#5C8FB4" stroke-width="1.13815"/>
<rect x="83.1063" y="48.5182" width="26.1775" height="26.1775" rx="6.25983" fill="#5C8FB4" stroke="#5C8FB4" stroke-width="1.13815"/>
<rect x="117.251" y="48.5182" width="26.1775" height="26.1775" rx="6.25983" fill="#5C8FB4" stroke="#5C8FB4" stroke-width="1.13815"/>
<rect x="151.395" y="48.5182" width="26.1775" height="26.1775" rx="6.25983" fill="#5C8FB4" stroke="#5C8FB4" stroke-width="1.13815"/>
<rect x="48.9617" y="82.6693" width="26.1775" height="26.1775" rx="6.25983" fill="#5C8FB4" stroke="#5C8FB4" stroke-width="1.13815"/>
<rect x="83.1063" y="82.6693" width="26.1775" height="26.1775" rx="6.25983" fill="#5C8FB4" stroke="#5C8FB4" stroke-width="1.13815"/>
<rect x="117.251" y="82.6693" width="26.1775" height="26.1775" rx="6.25983" fill="#5C8FB4" stroke="#5C8FB4" stroke-width="1.13815"/>
<rect x="151.395" y="82.6693" width="26.1775" height="26.1775" rx="6.25983" fill="#5C8FB4" stroke="#5C8FB4" stroke-width="1.13815"/>
<rect x="48.9617" y="116.82" width="26.1775" height="26.1775" rx="6.25983" fill="#5C8FB4" stroke="#5C8FB4" stroke-width="1.13815"/>
<rect x="83.1063" y="116.82" width="26.1775" height="26.1775" rx="6.25983" fill="#5C8FB4" stroke="#5C8FB4" stroke-width="1.13815"/>
<rect x="117.251" y="116.82" width="26.1775" height="26.1775" rx="6.25983" fill="#5C8FB4" stroke="#5C8FB4" stroke-width="1.13815"/>
<rect x="151.395" y="116.82" width="26.1775" height="26.1775" rx="6.25983" fill="#5C8FB4" stroke="#5C8FB4" stroke-width="1.13815"/>
<rect x="48.9617" y="150.972" width="26.1775" height="26.1775" rx="6.25983" fill="#5C8FB4" stroke="#5C8FB4" stroke-width="1.13815"/>
<rect x="83.1063" y="150.972" width="26.1775" height="26.1775" rx="6.25983" fill="#5C8FB4" stroke="#5C8FB4" stroke-width="1.13815"/>
<rect x="41.0874" y="321.491" width="144.441" height="36.0974" rx="18.0487" fill="#5C8FB4"/>
<rect y="9" width="60.5874" height="30.2937" rx="15.1469" fill="#FFCB46"/>
<path d="M37.8672 25.4091H31.556V31.7202C31.556 32.4145 30.988 32.9825 30.2938 32.9825C29.5995 32.9825 29.0315 32.4145 29.0315 31.7202V25.4091H22.7203C22.0261 25.4091 21.4581 24.8411 21.4581 24.1468C21.4581 23.4526 22.0261 22.8846 22.7203 22.8846H29.0315V16.5734C29.0315 15.8792 29.5995 15.3112 30.2938 15.3112C30.988 15.3112 31.556 15.8792 31.556 16.5734V22.8846H37.8672C38.5614 22.8846 39.1294 23.4526 39.1294 24.1468C39.1294 24.8411 38.5614 25.4091 37.8672 25.4091Z" fill="#003A64"/>
</svg>
