<svg width="40" height="40" viewBox="0 0 40 40" fill="none" xmlns="http://www.w3.org/2000/svg">
<path d="M0 12C0 5.37258 5.37258 0 12 0H28C34.6274 0 40 5.37258 40 12V28C40 34.6274 34.6274 40 28 40H12C5.37258 40 0 34.6274 0 28V12Z" fill="black" fill-opacity="0.6"/>
<path d="M9.99861 18.8761C8.37692 19.6266 8.83261 21.8112 10.6286 21.8246L17.9731 21.8514C18.1071 21.8514 18.1339 21.8916 18.1339 22.0122L18.1608 29.3166C18.1741 31.1661 20.3856 31.5146 21.1897 29.7857L28.7621 13.4078C29.5663 11.6923 28.2126 10.4459 26.4837 11.25L9.99861 18.8761ZM12.143 19.9482C12.1162 19.9482 12.1028 19.9215 12.143 19.908L26.6043 13.3408C26.6445 13.314 26.6713 13.3274 26.6311 13.381L20.0371 27.8155C20.0237 27.8557 20.0103 27.8557 20.0103 27.8155L20.0639 20.7658C20.0639 20.2565 19.702 19.8946 19.1927 19.8946L12.143 19.9482Z" fill="white"/>
</svg>
