<svg width="228" height="379" viewBox="0 0 228 379" fill="none" xmlns="http://www.w3.org/2000/svg">
<rect width="166.615" height="361" transform="translate(30 6)" fill="#003A64"/>
<rect x="25.6723" y="4.91805" width="175.271" height="369.655" rx="22.7203" stroke="white" stroke-width="8.65535"/>
<rect x="30" y="34.1299" width="166.615" height="336.477" rx="17.3107" fill="#003A64"/>
<path d="M104.652 42.7853H121.963" stroke="#5C8FB4" stroke-width="4.32767" stroke-linecap="round"/>
<rect x="44.5232" y="121.279" width="63.3206" height="63.3206" rx="6.5483" fill="#5C8FB4" stroke="#5C8FB4" stroke-width="1.1906"/>
<rect x="118.772" y="121.279" width="63.3206" height="63.3206" rx="6.5483" fill="#5C8FB4" stroke="#5C8FB4" stroke-width="1.1906"/>
<rect x="44.5232" y="195.527" width="63.3206" height="63.3206" rx="6.5483" fill="#5C8FB4" stroke="#5C8FB4" stroke-width="1.1906"/>
<rect x="118.772" y="195.527" width="63.3206" height="63.3206" rx="6.5483" fill="#5C8FB4" stroke="#5C8FB4" stroke-width="1.1906"/>
<rect x="44.5232" y="269.776" width="63.3206" height="63.3206" rx="6.5483" fill="#5C8FB4" stroke="#5C8FB4" stroke-width="1.1906"/>
<rect x="118.772" y="269.776" width="63.3206" height="63.3206" rx="6.5483" fill="#5C8FB4" stroke="#5C8FB4" stroke-width="1.1906"/>
<rect x="6.10352e-05" y="62.2598" width="227.203" height="45.6384" rx="17.3107" fill="#FFCB46"/>
<path d="M65.5521 93.1934L60.1425 87.7838M49.3233 83.2758C49.3233 84.1046 49.4865 84.9253 49.8037 85.691C50.1209 86.4567 50.5858 87.1524 51.1718 87.7385C51.7579 88.3245 52.4536 88.7894 53.2193 89.1066C53.985 89.4237 54.8057 89.587 55.6345 89.587C56.4633 89.587 57.284 89.4237 58.0497 89.1066C58.8154 88.7894 59.5111 88.3245 60.0972 87.7385C60.6832 87.1524 61.1481 86.4567 61.4653 85.691C61.7824 84.9253 61.9457 84.1046 61.9457 83.2758C61.9457 82.447 61.7824 81.6263 61.4653 80.8606C61.1481 80.0949 60.6832 79.3992 60.0972 78.8131C59.5111 78.2271 58.8154 77.7622 58.0497 77.445C57.284 77.1278 56.4633 76.9646 55.6345 76.9646C54.8057 76.9646 53.985 77.1278 53.2193 77.445C52.4536 77.7622 51.7579 78.2271 51.1718 78.8131C50.5858 79.3992 50.1209 80.0949 49.8037 80.8606C49.4865 81.6263 49.3233 82.447 49.3233 83.2758Z" stroke="#003A64" stroke-width="3.24575" stroke-linecap="round" stroke-linejoin="round"/>
<path d="M74.1398 91.079V78.882H79.4733C81.84 78.882 83.2515 80.04 83.2515 81.9165V81.9334C83.2515 83.2182 82.2964 84.3423 81.0454 84.5283V84.6804C82.6599 84.8072 83.8348 86.0159 83.8348 87.5797V87.5966C83.8348 89.735 82.2203 91.079 79.617 91.079H74.1398ZM78.8224 80.7754H76.6924V83.9535H78.6111C79.9889 83.9535 80.7412 83.3788 80.7412 82.3729V82.356C80.7412 81.3671 80.0396 80.7754 78.8224 80.7754ZM78.907 85.6356H76.6924V89.1772H78.9661C80.4369 89.1772 81.2314 88.5517 81.2314 87.3937V87.3768C81.2314 86.2442 80.4115 85.6356 78.907 85.6356ZM86.7152 80.3443C85.9544 80.3443 85.3205 79.7357 85.3205 78.975C85.3205 78.2058 85.9544 77.5973 86.7152 77.5973C87.4759 77.5973 88.1014 78.2058 88.1014 78.975C88.1014 79.7357 87.4759 80.3443 86.7152 80.3443ZM85.4727 91.079V81.7728H87.9408V91.079H85.4727ZM89.9844 91.079V81.7728H92.4525V83.2182H92.6047C92.9005 82.2123 93.7457 81.6206 94.9545 81.6206C95.2841 81.6206 95.6306 81.6714 95.8758 81.739V83.8944C95.5039 83.8098 95.1235 83.7507 94.7431 83.7507C93.34 83.7507 92.4525 84.5537 92.4525 85.8722V91.079H89.9844ZM100.185 91.2227C97.8602 91.2227 96.4064 89.4054 96.4064 86.4301V86.4132C96.4064 83.421 97.8264 81.6206 100.185 81.6206C101.461 81.6206 102.501 82.2461 102.966 83.2604H103.118V78.2143H105.586V91.079H103.118V89.6336H102.966C102.484 90.6395 101.495 91.2227 100.185 91.2227ZM101.021 89.1772C102.332 89.1772 103.143 88.146 103.143 86.4386V86.4217C103.143 84.7143 102.323 83.6661 101.021 83.6661C99.7198 83.6661 98.9168 84.7143 98.9168 86.4132V86.4301C98.9168 88.146 99.7198 89.1772 101.021 89.1772ZM108.956 80.3443C108.196 80.3443 107.562 79.7357 107.562 78.975C107.562 78.2058 108.196 77.5973 108.956 77.5973C109.717 77.5973 110.343 78.2058 110.343 78.975C110.343 79.7357 109.717 80.3443 108.956 80.3443ZM107.714 91.079V81.7728H110.182V91.079H107.714ZM112.226 91.079V81.7728H114.694V83.2097H114.846C115.269 82.2039 116.19 81.5699 117.517 81.5699C119.588 81.5699 120.703 82.8378 120.703 85.0608V91.079H118.235V85.6187C118.235 84.3085 117.694 83.6154 116.528 83.6154C115.387 83.6154 114.694 84.4353 114.694 85.6947V91.079H112.226ZM126.762 94.3501C124.184 94.3501 122.688 93.2682 122.485 91.6876V91.6453H124.928L124.936 91.6791C125.072 92.2201 125.714 92.592 126.813 92.592C128.131 92.592 128.901 91.9749 128.901 90.893V89.1603H128.748C128.233 90.1408 127.252 90.6733 125.959 90.6733C123.618 90.6733 122.172 88.8644 122.172 86.2188V86.2019C122.172 83.4633 123.618 81.6206 126.001 81.6206C127.278 81.6206 128.275 82.2461 128.774 83.2942H128.892V81.7728H131.36V90.7916C131.36 92.9723 129.577 94.3501 126.762 94.3501ZM126.796 88.7799C128.131 88.7799 128.926 87.7402 128.926 86.2103V86.1934C128.926 84.6635 128.123 83.6239 126.796 83.6239C125.469 83.6239 124.7 84.6635 124.7 86.1934V86.2103C124.7 87.7402 125.46 88.7799 126.796 88.7799ZM137.654 91.079V78.882H140.206V88.9743H145.633V91.079H137.654ZM150.973 91.2734C148.107 91.2734 146.383 89.4561 146.383 86.4301V86.4132C146.383 83.4126 148.133 81.5699 150.973 81.5699C153.813 81.5699 155.562 83.4041 155.562 86.4132V86.4301C155.562 89.4646 153.838 91.2734 150.973 91.2734ZM150.973 89.3378C152.283 89.3378 153.035 88.2643 153.035 86.4301V86.4132C153.035 84.5959 152.274 83.5056 150.973 83.5056C149.663 83.5056 148.91 84.5959 148.91 86.4132V86.4301C148.91 88.2643 149.654 89.3378 150.973 89.3378ZM161.232 91.2734C158.324 91.2734 156.676 89.5068 156.676 86.4132V86.3963C156.676 83.3365 158.316 81.5699 161.232 81.5699C163.7 81.5699 165.163 82.9139 165.382 84.9932V85.0185H163.083L163.075 85.0016C162.914 84.0972 162.297 83.5056 161.241 83.5056C159.914 83.5056 159.187 84.5368 159.187 86.3963V86.4132C159.187 88.2981 159.922 89.3378 161.241 89.3378C162.255 89.3378 162.855 88.856 163.075 87.9262L163.092 87.8924H165.374L165.365 87.9431C165.112 89.9717 163.658 91.2734 161.232 91.2734ZM169.404 91.2227C167.629 91.2227 166.369 90.1238 166.369 88.4334V88.4164C166.369 86.7429 167.663 85.7624 169.979 85.6271L172.227 85.4919V84.7227C172.227 83.9197 171.678 83.4633 170.663 83.4633C169.776 83.4633 169.209 83.776 169.015 84.3254L168.998 84.3593H166.716L166.724 84.2832C166.919 82.6519 168.457 81.5699 170.798 81.5699C173.267 81.5699 174.661 82.7364 174.661 84.7227V91.079H172.227V89.8449H172.075C171.601 90.7071 170.621 91.2227 169.404 91.2227ZM168.778 88.2812C168.778 88.9912 169.378 89.4223 170.232 89.4223C171.373 89.4223 172.227 88.67 172.227 87.6895V87.0049L170.35 87.1232C169.294 87.1908 168.778 87.5881 168.778 88.2643V88.2812ZM176.722 91.079V78.2143H179.19V91.079H176.722Z" fill="#003A64"/>
</svg>
