<svg width="185" height="379" viewBox="0 0 185 379" fill="none" xmlns="http://www.w3.org/2000/svg">
<rect x="4.67233" y="4.67233" width="175.271" height="369.655" rx="22.7203" fill="#003A64"/>
<rect x="4.67233" y="4.67233" width="175.271" height="369.655" rx="22.7203" stroke="white" stroke-width="8.65535"/>
<rect x="27.9617" y="48.5182" width="26.1775" height="26.1775" rx="6.25983" fill="#5C8FB4" stroke="#5C8FB4" stroke-width="1.13815"/>
<rect x="62.1062" y="48.5182" width="26.1775" height="26.1775" rx="6.25983" fill="#5C8FB4" stroke="#5C8FB4" stroke-width="1.13815"/>
<rect x="96.2507" y="48.5182" width="26.1775" height="26.1775" rx="6.25983" fill="#5C8FB4" stroke="#5C8FB4" stroke-width="1.13815"/>
<rect x="130.395" y="48.5182" width="26.1775" height="26.1775" rx="6.25983" fill="#5C8FB4" stroke="#5C8FB4" stroke-width="1.13815"/>
<rect x="27.9616" y="84.4891" width="26.1775" height="26.1775" rx="6.25983" fill="#5C8FB4" stroke="#5C8FB4" stroke-width="1.13815"/>
<rect x="62.1062" y="84.4891" width="26.1775" height="26.1775" rx="6.25983" fill="#5C8FB4" stroke="#5C8FB4" stroke-width="1.13815"/>
<rect x="96.2507" y="84.4891" width="26.1775" height="26.1775" rx="6.25983" fill="#5C8FB4" stroke="#5C8FB4" stroke-width="1.13815"/>
<rect x="130.395" y="84.4891" width="26.1775" height="26.1775" rx="6.25983" fill="#5C8FB4" stroke="#5C8FB4" stroke-width="1.13815"/>
<rect x="27.9616" y="120.46" width="26.1775" height="26.1775" rx="6.25983" fill="#5C8FB4" stroke="#5C8FB4" stroke-width="1.13815"/>
<rect x="62.1062" y="120.46" width="26.1775" height="26.1775" rx="6.25983" fill="#5C8FB4" stroke="#5C8FB4" stroke-width="1.13815"/>
<rect x="95.6816" y="119.891" width="27.3156" height="27.3156" rx="6.82891" fill="#5C8FB4"/>
<rect x="129.826" y="119.891" width="34.48" height="34.48" rx="8.62" fill="#FFCB46"/>
<rect x="27.9616" y="156.431" width="26.1775" height="26.1775" rx="6.25983" fill="#5C8FB4" stroke="#5C8FB4" stroke-width="1.13815"/>
<rect x="62.1062" y="156.431" width="26.1775" height="26.1775" rx="6.25983" fill="#5C8FB4" stroke="#5C8FB4" stroke-width="1.13815"/>
<rect x="20.0874" y="321.491" width="144.441" height="36.0974" rx="18.0487" fill="#5C8FB4"/>
</svg>
